<?xml version="1.0" standalone="no"?>
<!DOCTYPE svg PUBLIC "-//W3C//DTD SVG 20010904//EN"
 "http://www.w3.org/TR/2001/REC-SVG-20010904/DTD/svg10.dtd">
<svg version="1.0" xmlns="http://www.w3.org/2000/svg"
 width="110.000000pt" height="63.000000pt" viewBox="0 0 110.000000 63.000000"
 preserveAspectRatio="xMidYMid meet">

<g transform="translate(0.000000,63.000000) scale(0.100000,-0.100000)"
fill="#000000" stroke="none">
<path d="M0 315 l0 -315 315 0 315 0 0 95 c0 57 -4 95 -10 95 -6 0 -10 -35
-10 -85 l0 -85 -295 0 -295 0 0 295 0 295 295 0 295 0 0 -90 c0 -53 4 -90 10
-90 6 0 10 40 10 100 l0 100 -315 0 -315 0 0 -315z"/>
<path d="M253 398 c-26 -13 -31 -49 -9 -68 8 -6 34 -10 58 -8 35 2 43 0 46
-15 3 -17 -2 -19 -57 -15 -74 4 -85 -13 -17 -26 58 -12 99 6 104 43 5 31 -12
41 -70 41 -38 0 -48 4 -48 16 0 14 9 16 50 12 57 -6 72 15 19 26 -40 8 -49 7
-76 -6z"/>
<path d="M660 335 c0 -60 3 -75 15 -75 12 0 15 15 15 75 0 60 -3 75 -15 75
-12 0 -15 -15 -15 -75z"/>
<path d="M720 400 c0 -5 7 -10 15 -10 8 0 15 5 15 10 0 6 -7 10 -15 10 -8 0
-15 -4 -15 -10z"/>
<path d="M430 385 c0 -8 -7 -15 -15 -15 -8 0 -15 -4 -15 -10 0 -5 7 -10 15
-10 11 0 15 -12 15 -45 0 -25 5 -45 10 -45 6 0 10 20 10 45 0 33 4 45 15 45 8
0 15 5 15 10 0 6 -7 10 -15 10 -8 0 -15 7 -15 15 0 8 -4 15 -10 15 -5 0 -10
-7 -10 -15z"/>
<path d="M510 325 c0 -50 23 -71 66 -61 19 5 22 3 17 -10 -4 -11 -16 -14 -41
-12 -20 1 -37 -2 -39 -8 -6 -17 48 -24 77 -11 23 11 25 19 28 80 3 70 -14 97
-20 30 -2 -31 -7 -39 -27 -41 -28 -4 -41 12 -41 51 0 15 -4 27 -10 27 -5 0
-10 -20 -10 -45z"/>
<path d="M720 315 c0 -42 3 -55 15 -55 12 0 15 13 15 55 0 42 -3 55 -15 55
-12 0 -15 -13 -15 -55z"/>
<path d="M780 360 c0 -5 11 -10 25 -10 32 0 31 -4 -6 -51 l-31 -39 56 0 c31 0
56 5 56 10 0 6 -14 10 -31 10 l-31 0 24 33 c44 57 44 57 -11 57 -28 0 -51 -4
-51 -10z"/>
<path d="M919 349 c-11 -11 -18 -27 -15 -36 3 -8 6 -18 6 -23 0 -12 56 -32 81
-28 31 4 38 30 8 27 -39 -3 -59 0 -59 11 0 6 20 10 45 10 38 0 45 3 45 20 0
41 -76 54 -111 19z m76 -9 c4 -6 -7 -10 -25 -10 -18 0 -29 4 -25 10 3 6 15 10
25 10 10 0 22 -4 25 -10z"/>
</g>
</svg>
